<?xml version="1.0" standalone="no"?>
<!DOCTYPE svg PUBLIC "-//W3C//DTD SVG 20010904//EN"
 "http://www.w3.org/TR/2001/REC-SVG-20010904/DTD/svg10.dtd">
<svg version="1.0" xmlns="http://www.w3.org/2000/svg"
 width="512.000000pt" height="512.000000pt" viewBox="0 0 512.000000 512.000000"
 preserveAspectRatio="xMidYMid meet">
<metadata>
Created by potrace 1.11, written by Peter Selinger 2001-2013
</metadata>
<g transform="translate(0.000000,512.000000) scale(0.100000,-0.100000)"
fill="#000000" stroke="none">
<path d="M2355 5024 c-448 -47 -811 -175 -1175 -415 l-104 -69 -248 0 -248 0
0 -248 0 -248 -69 -104 c-214 -326 -339 -647 -398 -1030 -25 -161 -25 -539 0
-700 59 -383 184 -704 398 -1030 l69 -104 0 -248 0 -248 248 0 248 0 104 -69
c322 -213 649 -339 1030 -398 161 -25 539 -25 700 0 381 59 708 185 1030 398
l104 69 248 0 248 0 0 248 0 248 69 104 c213 322 339 649 398 1030 25 161 25
539 0 700 -59 381 -185 708 -398 1030 l-69 104 0 248 0 248 -248 0 -248 0
-104 69 c-319 211 -650 339 -1020 396 -101 16 -476 28 -565 19z m800 -1194 l0
-585 -640 -3 -640 -2 0 -638 0 -637 -585 0 -585 0 -3 1215 c-1 668 0 1221 3
1228 3 10 254 12 1227 10 l1223 -3 0 -585z m1260 0 l0 -585 -585 0 -585 0 -3
575 c-1 316 0 581 3 588 3 10 126 12 587 10 l583 -3 0 -585z m-1260 -1270 l0
-595 -595 0 -595 0 -3 585 c-1 322 0 591 3 598 3 10 128 12 597 10 l593 -3 0
-595z m1260 -630 l0 -1225 -1225 0 -1225 0 0 585 0 585 640 3 640 2 -3 626
c-2 345 -1 633 2 640 5 12 98 14 588 12 l583 -3 0 -1225z m-2540 -640 l0 -585
-585 0 -585 0 -3 575 c-1 316 0 581 3 588 3 10 126 12 587 10 l583 -3 0 -585z"/>
<path d="M1308 4019 c-60 -63 -133 -97 -243 -112 l-85 -11 0 -98 0 -98 38 0
c67 0 176 29 224 60 l48 29 0 -449 0 -450 115 0 115 0 0 590 0 590 -82 -1 -83
0 -47 -50z"/>
<path d="M3669 2286 c-167 -45 -279 -207 -279 -401 0 -131 42 -229 131 -309
112 -100 305 -115 416 -30 l36 27 -7 -44 c-24 -159 -102 -239 -233 -239 -46 0
-140 23 -199 50 l-43 18 -27 -81 c-15 -45 -29 -87 -31 -94 -7 -17 85 -61 175
-84 179 -46 337 -6 447 113 60 65 95 131 127 244 29 105 32 371 5 474 -39 145
-129 279 -218 326 -83 42 -207 55 -300 30z m182 -219 c45 -30 85 -106 100
-190 11 -63 11 -70 -8 -95 -66 -89 -189 -108 -259 -38 -52 52 -69 156 -40 239
34 95 131 135 207 84z"/>
</g>
</svg>
